<svg width="18" height="18" viewBox="0 0 18 18" fill="none" xmlns="http://www.w3.org/2000/svg">
<path d="M1.5 1.5H3.058C3.754 1.5 4.102 1.5 4.364 1.689C4.626 1.878 4.736 2.208 4.956 2.868L5.5 4.5" stroke="#0B0599" stroke-width="1.25" stroke-linecap="round"/>
<path d="M15.4998 14.5H6.04984C5.90484 14.5 5.83184 14.5 5.77584 14.494C5.63699 14.4785 5.50293 14.4341 5.3823 14.3636C5.26167 14.2932 5.15714 14.1982 5.07545 14.0848C4.99377 13.9715 4.93674 13.8423 4.90804 13.7056C4.87935 13.5688 4.87962 13.4276 4.90884 13.291C4.93192 13.2025 4.95895 13.1151 4.98984 13.029C5.04184 12.875 5.06684 12.798 5.09584 12.729C5.23819 12.388 5.4722 12.0932 5.77193 11.8771C6.07165 11.6611 6.42537 11.5323 6.79384 11.505C6.86784 11.5 6.94884 11.5 7.11084 11.5H12.4998" stroke="#0B0599" stroke-width="1.25" stroke-linecap="round" stroke-linejoin="round"/>
<path d="M12.1791 11.5H9.13809C7.85809 11.5 7.2181 11.5 6.7181 11.17C6.2171 10.84 5.9651 10.252 5.4611 9.076L5.2921 8.682C4.4821 6.792 4.0781 5.849 4.5221 5.174C4.9681 4.5 5.9961 4.5 8.0501 4.5H13.3301C15.6301 4.5 16.7791 4.5 17.2131 5.247C17.6461 5.994 17.0761 6.992 15.9351 8.988L15.6521 9.485C15.0901 10.468 14.8091 10.96 14.3431 11.23C13.8781 11.5 13.3111 11.5 12.1791 11.5Z" stroke="#0B0599" stroke-width="1.25" stroke-linecap="round"/>
<path d="M15 18C15.5523 18 16 17.5523 16 17C16 16.4477 15.5523 16 15 16C14.4477 16 14 16.4477 14 17C14 17.5523 14.4477 18 15 18Z" fill="#0B0599"/>
<path d="M7 18C7.55228 18 8 17.5523 8 17C8 16.4477 7.55228 16 7 16C6.44772 16 6 16.4477 6 17C6 17.5523 6.44772 18 7 18Z" fill="#0B0599"/>
</svg>
