<svg width="164" height="55" viewBox="0 0 164 55" fill="none" xmlns="http://www.w3.org/2000/svg">
<path d="M28.7086 11.4901C29.636 7.51981 35.0542 2.00002 35.0542 2.00002L4 9.7207C4 9.7207 11.2433 12.1104 13.8026 15.1961C17.704 19.9 14.1393 30.3439 14.1393 30.3439C14.1393 30.3439 10.893 37.2888 13.6761 40.1518C14.7069 41.2123 16.2794 41.0913 17.1036 42.2668C17.7683 43.2148 17.7984 45.0613 17.7984 45.0613L35.934 40.5524C35.934 40.5524 36.8795 38.4342 37.7236 37.1403C38.7169 35.6177 40.1286 35.0224 40.7553 33.4194C42.2693 29.547 37.6142 26.09 34.7593 25.2173C31.9044 24.3446 27.3199 17.4352 28.7086 11.4901Z" stroke="#0B0599" stroke-width="2"/>
<g filter="url(#filter0_d_477_1238)">
<path d="M50.8115 36.0024L51.2803 35.979C51.624 35.979 51.8389 36.1313 51.9248 36.436C51.9717 36.6157 52.0186 36.7876 52.0654 36.9517C52.1123 37.1079 52.1357 37.2876 52.1357 37.4907C52.1357 37.686 52.0771 37.854 51.96 37.9946C51.8428 38.1353 51.6904 38.2563 51.5029 38.3579C50.2607 39.0298 48.9092 38.7524 47.4482 37.5259C46.2529 36.5337 44.96 34.8892 43.5693 32.5923L41.9287 29.7798C42.124 29.397 42.3467 28.9868 42.5967 28.5493C43.6592 26.7759 44.5107 25.4634 45.1514 24.6118C46.4561 22.8774 47.5303 21.647 48.374 20.9204C48.7334 20.6079 49.0146 20.4517 49.2178 20.4517C49.585 20.4517 49.9209 20.5728 50.2256 20.8149L50.6123 21.1079C51.167 21.522 51.3076 21.9048 51.0342 22.2563C50.8936 22.4438 50.7178 22.6235 50.5068 22.7954C50.2959 22.9673 50.0967 23.147 49.9092 23.3345C49.1904 24.0688 48.6357 24.6548 48.2451 25.0923C47.3076 26.186 46.6553 26.9634 46.2881 27.4243L45.3623 28.6431C45.1045 29.0024 44.8896 29.3228 44.7178 29.604L45.8076 31.2212L46.5693 32.2993C48.1943 34.5493 49.4561 35.7681 50.3545 35.9556C50.5029 35.9868 50.6553 36.0024 50.8115 36.0024ZM38.4717 21.272C38.4717 21.0688 38.5342 20.8931 38.6592 20.7446C38.792 20.5962 38.9482 20.522 39.1279 20.522H40.7686C40.9482 20.522 41.1006 20.5962 41.2256 20.7446C41.3506 20.8931 41.4131 21.0688 41.4131 21.272V37.7368C41.4131 37.9399 41.3467 38.1157 41.2139 38.2642C41.0889 38.4126 40.9365 38.4868 40.7568 38.4868H39.1162C38.9365 38.4868 38.7842 38.4126 38.6592 38.2642C38.5342 38.1157 38.4717 37.9399 38.4717 37.7368V21.272ZM54.3037 34.0571C53.9678 33.354 53.71 32.6079 53.5303 31.8188C53.3584 31.022 53.2725 30.0845 53.2725 29.0063C53.2725 27.9204 53.4795 26.8188 53.8936 25.7017C54.3154 24.5845 54.9092 23.6196 55.6748 22.8071C57.292 21.0884 59.3857 20.229 61.9561 20.229C64.6904 20.229 66.835 21.1079 68.3896 22.8657C69.8662 24.5298 70.6045 26.7017 70.6045 29.3813C70.6045 32.0376 69.792 34.2603 68.167 36.0493C67.4014 36.8931 66.4834 37.561 65.4131 38.0532C64.3428 38.5376 63.2568 38.7798 62.1553 38.7798C61.0615 38.7798 60.1279 38.6665 59.3545 38.4399C58.5811 38.2056 57.874 37.8813 57.2334 37.4673C56.6006 37.0454 56.0381 36.5454 55.5459 35.9673C55.0537 35.3892 54.6396 34.7524 54.3037 34.0571ZM56.4482 29.2993C56.4482 30.1978 56.5537 31.0493 56.7646 31.854C56.9834 32.6587 57.3154 33.3774 57.7607 34.0103C58.7451 35.3931 60.1318 36.0845 61.9209 36.0845C63.7178 36.0845 65.1045 35.4243 66.0811 34.104C66.9795 32.8853 67.4287 31.3071 67.4287 29.3696C67.4287 27.5415 66.9717 26.0337 66.0576 24.8462C65.0498 23.5571 63.6748 22.9126 61.9326 22.9126C60.2529 22.9126 58.917 23.5142 57.9248 24.7173C56.9404 25.897 56.4482 27.4243 56.4482 29.2993ZM74.7646 21.272C74.7646 21.0688 74.8271 20.8931 74.9521 20.7446C75.085 20.5962 75.2412 20.522 75.4209 20.522H77.0615C77.2412 20.522 77.3936 20.5962 77.5186 20.7446C77.6436 20.8931 77.7061 21.0688 77.7061 21.272V35.8735H84.0576C84.2607 35.8735 84.4131 35.9399 84.5146 36.0728C84.624 36.1978 84.6787 36.354 84.6787 36.5415V37.8306C84.6787 38.0103 84.624 38.1665 84.5146 38.2993C84.4131 38.4243 84.2607 38.4868 84.0576 38.4868H75.4092C75.2295 38.4868 75.0771 38.4126 74.9521 38.2642C74.8271 38.1157 74.7646 37.9399 74.7646 37.7368V21.272ZM88.3584 34.0571C88.0225 33.354 87.7646 32.6079 87.585 31.8188C87.4131 31.022 87.3271 30.0845 87.3271 29.0063C87.3271 27.9204 87.5342 26.8188 87.9482 25.7017C88.3701 24.5845 88.9639 23.6196 89.7295 22.8071C91.3467 21.0884 93.4404 20.229 96.0107 20.229C98.7451 20.229 100.89 21.1079 102.444 22.8657C103.921 24.5298 104.659 26.7017 104.659 29.3813C104.659 32.0376 103.847 34.2603 102.222 36.0493C101.456 36.8931 100.538 37.561 99.4678 38.0532C98.3975 38.5376 97.3115 38.7798 96.21 38.7798C95.1162 38.7798 94.1826 38.6665 93.4092 38.4399C92.6357 38.2056 91.9287 37.8813 91.2881 37.4673C90.6553 37.0454 90.0928 36.5454 89.6006 35.9673C89.1084 35.3892 88.6943 34.7524 88.3584 34.0571ZM90.5029 29.2993C90.5029 30.1978 90.6084 31.0493 90.8193 31.854C91.0381 32.6587 91.3701 33.3774 91.8154 34.0103C92.7998 35.3931 94.1865 36.0845 95.9756 36.0845C97.7725 36.0845 99.1592 35.4243 100.136 34.104C101.034 32.8853 101.483 31.3071 101.483 29.3696C101.483 27.5415 101.026 26.0337 100.112 24.8462C99.1045 23.5571 97.7295 22.9126 95.9873 22.9126C94.3076 22.9126 92.9717 23.5142 91.9795 24.7173C90.9951 25.897 90.5029 27.4243 90.5029 29.2993ZM120.772 35.9673L121.979 35.8032C122.198 35.8032 122.351 35.8774 122.437 36.0259C122.53 36.1743 122.597 36.3345 122.636 36.5063C122.683 36.6704 122.726 36.8188 122.765 36.9517C122.804 37.0845 122.823 37.229 122.823 37.3853C122.823 37.5415 122.745 37.7017 122.589 37.8657C122.44 38.022 122.249 38.1626 122.015 38.2876C121.515 38.5532 120.991 38.686 120.444 38.686C119.905 38.686 119.417 38.6235 118.979 38.4985C118.542 38.3735 118.128 38.2017 117.737 37.9829C117.128 37.6392 116.503 37.1548 115.862 36.5298C115.229 35.9048 114.726 35.3696 114.351 34.9243L112.417 32.5337C112.144 32.2056 111.897 31.9399 111.679 31.7368V37.7485C111.679 38.061 111.573 38.2837 111.362 38.4165C111.284 38.4634 111.194 38.4868 111.093 38.4868H109.417C109.206 38.4868 109.058 38.4243 108.972 38.2993C108.831 38.0962 108.761 37.9126 108.761 37.7485V21.5532C108.761 21.2798 108.831 21.0415 108.972 20.8384C109.12 20.6274 109.358 20.522 109.687 20.522H114.913C119.562 20.522 121.886 22.3579 121.886 26.0298C121.886 27.7173 121.261 29.1353 120.011 30.2837C118.831 31.3696 117.44 31.9126 115.839 31.9126C115.558 31.9126 115.288 31.8931 115.03 31.854L116.472 33.3774C117.3 34.2446 117.944 34.8306 118.405 35.1353C119.233 35.6899 120.022 35.9673 120.772 35.9673ZM111.679 29.4985C112.562 29.7017 113.358 29.8032 114.069 29.8032C114.788 29.8032 115.429 29.7368 115.991 29.604C116.554 29.4712 117.054 29.2603 117.491 28.9712C118.46 28.3462 118.944 27.4204 118.944 26.1938C118.944 25.0923 118.526 24.2759 117.69 23.7446C116.987 23.2993 116.034 23.0767 114.831 23.0767H111.679V29.4985ZM130.663 32.4517L124.288 21.4712C124.218 21.354 124.183 21.2251 124.183 21.0845C124.183 20.9438 124.233 20.8149 124.335 20.6978C124.437 20.5806 124.565 20.522 124.722 20.522H126.608C126.929 20.522 127.151 20.6274 127.276 20.8384C127.308 20.9009 127.343 20.9634 127.382 21.0259L132.058 29.5923C132.089 29.6626 132.116 29.6978 132.14 29.6978C132.171 29.6978 132.405 29.3462 132.843 28.6431C133.28 27.9321 133.854 26.8853 134.565 25.5024C135.276 24.1196 135.929 22.6938 136.522 21.2251C136.616 20.9907 136.726 20.8149 136.851 20.6978C136.976 20.5806 137.163 20.522 137.413 20.522H139.229C139.417 20.522 139.558 20.5884 139.651 20.7212C139.745 20.8462 139.792 20.9907 139.792 21.1548C139.792 21.311 139.761 21.4595 139.698 21.6001C137.675 25.7798 135.636 29.3384 133.581 32.2759V37.7368C133.581 37.9478 133.515 38.1274 133.382 38.2759C133.257 38.4165 133.104 38.4868 132.925 38.4868H131.308C131.128 38.4868 130.976 38.4126 130.851 38.2642C130.726 38.1157 130.663 37.9399 130.663 37.7368V32.4517ZM145.37 23.0767H141.14C140.937 23.0767 140.761 23.0142 140.612 22.8892C140.472 22.7563 140.401 22.5962 140.401 22.4087V21.1782C140.401 20.9985 140.472 20.8462 140.612 20.7212C140.761 20.5884 140.937 20.522 141.14 20.522H152.718C152.921 20.522 153.073 20.5884 153.175 20.7212C153.284 20.8462 153.339 21.0024 153.339 21.1899V22.4204C153.339 22.6001 153.284 22.7563 153.175 22.8892C153.065 23.0142 152.909 23.0767 152.706 23.0767H148.323V37.7368C148.323 37.9399 148.257 38.1157 148.124 38.2642C147.999 38.4126 147.847 38.4868 147.667 38.4868H146.015C145.835 38.4868 145.683 38.4126 145.558 38.2642C145.433 38.1157 145.37 37.9399 145.37 37.7368V23.0767Z" fill="black"/>
</g>
<defs>
<filter id="filter0_d_477_1238" x="28.4717" y="15.229" width="134.867" height="39.1367" filterUnits="userSpaceOnUse" color-interpolation-filters="sRGB">
<feFlood flood-opacity="0" result="BackgroundImageFix"/>
<feColorMatrix in="SourceAlpha" type="matrix" values="0 0 0 0 0 0 0 0 0 0 0 0 0 0 0 0 0 0 127 0" result="hardAlpha"/>
<feOffset dy="5"/>
<feGaussianBlur stdDeviation="5"/>
<feComposite in2="hardAlpha" operator="out"/>
<feColorMatrix type="matrix" values="0 0 0 0 0 0 0 0 0 0 0 0 0 0 0 0 0 0 0.1 0"/>
<feBlend mode="normal" in2="BackgroundImageFix" result="effect1_dropShadow_477_1238"/>
<feBlend mode="normal" in="SourceGraphic" in2="effect1_dropShadow_477_1238" result="shape"/>
</filter>
</defs>
</svg>
