<svg width="300" height="85" viewBox="0 0 300 85" fill="none" xmlns="http://www.w3.org/2000/svg">
<path d="M44.1022 18.8156C45.4093 11.6958 53.9131 2.00006 53.9131 2.00006L4 14.4094C4 14.4094 15.8477 19.0777 20.1439 24.7721C26.6932 33.4529 21.4328 52.1261 21.4328 52.1261C21.4328 52.1261 16.5163 64.5004 21.1641 69.804C22.8855 71.7684 25.4262 71.6272 26.8187 73.7892C27.9416 75.5327 28.081 78.8665 28.081 78.8665L57.2303 71.6195C57.2303 71.6195 58.6574 67.8431 59.961 65.5494C61.4949 62.8504 63.752 61.8452 64.6882 58.983C66.95 52.0688 59.2414 45.6014 54.5751 43.8863C49.9088 42.1711 42.145 29.4765 44.1022 18.8156Z" stroke="#0B0599" stroke-width="2"/>
<g filter="url(#filter0_d_701_434)">
<path d="M84.7422 63.0312L85.6797 62.9844C86.3672 62.9844 86.7969 63.2891 86.9688 63.8984C87.0625 64.2578 87.1562 64.6016 87.25 64.9297C87.3438 65.2422 87.3906 65.6016 87.3906 66.0078C87.3906 66.3984 87.2734 66.7344 87.0391 67.0156C86.8047 67.2969 86.5 67.5391 86.125 67.7422C83.6406 69.0859 80.9375 68.5312 78.0156 66.0781C75.625 64.0938 73.0391 60.8047 70.2578 56.2109L66.9766 50.5859C67.3672 49.8203 67.8125 49 68.3125 48.125C70.4375 44.5781 72.1406 41.9531 73.4219 40.25C76.0312 36.7812 78.1797 34.3203 79.8672 32.8672C80.5859 32.2422 81.1484 31.9297 81.5547 31.9297C82.2891 31.9297 82.9609 32.1719 83.5703 32.6562L84.3438 33.2422C85.4531 34.0703 85.7344 34.8359 85.1875 35.5391C84.9062 35.9141 84.5547 36.2734 84.1328 36.6172C83.7109 36.9609 83.3125 37.3203 82.9375 37.6953C81.5 39.1641 80.3906 40.3359 79.6094 41.2109C77.7344 43.3984 76.4297 44.9531 75.6953 45.875L73.8438 48.3125C73.3281 49.0312 72.8984 49.6719 72.5547 50.2344L74.7344 53.4688L76.2578 55.625C79.5078 60.125 82.0312 62.5625 83.8281 62.9375C84.125 63 84.4297 63.0312 84.7422 63.0312ZM60.0625 33.5703C60.0625 33.1641 60.1875 32.8125 60.4375 32.5156C60.7031 32.2188 61.0156 32.0703 61.375 32.0703H64.6562C65.0156 32.0703 65.3203 32.2188 65.5703 32.5156C65.8203 32.8125 65.9453 33.1641 65.9453 33.5703V66.5C65.9453 66.9062 65.8125 67.2578 65.5469 67.5547C65.2969 67.8516 64.9922 68 64.6328 68H61.3516C60.9922 68 60.6875 67.8516 60.4375 67.5547C60.1875 67.2578 60.0625 66.9062 60.0625 66.5V33.5703ZM91.7266 59.1406C91.0547 57.7344 90.5391 56.2422 90.1797 54.6641C89.8359 53.0703 89.6641 51.1953 89.6641 49.0391C89.6641 46.8672 90.0781 44.6641 90.9062 42.4297C91.75 40.1953 92.9375 38.2656 94.4688 36.6406C97.7031 33.2031 101.891 31.4844 107.031 31.4844C112.5 31.4844 116.789 33.2422 119.898 36.7578C122.852 40.0859 124.328 44.4297 124.328 49.7891C124.328 55.1016 122.703 59.5469 119.453 63.125C117.922 64.8125 116.086 66.1484 113.945 67.1328C111.805 68.1016 109.633 68.5859 107.43 68.5859C105.242 68.5859 103.375 68.3594 101.828 67.9062C100.281 67.4375 98.8672 66.7891 97.5859 65.9609C96.3203 65.1172 95.1953 64.1172 94.2109 62.9609C93.2266 61.8047 92.3984 60.5312 91.7266 59.1406ZM96.0156 49.625C96.0156 51.4219 96.2266 53.125 96.6484 54.7344C97.0859 56.3438 97.75 57.7812 98.6406 59.0469C100.609 61.8125 103.383 63.1953 106.961 63.1953C110.555 63.1953 113.328 61.875 115.281 59.2344C117.078 56.7969 117.977 53.6406 117.977 49.7656C117.977 46.1094 117.062 43.0938 115.234 40.7188C113.219 38.1406 110.469 36.8516 106.984 36.8516C103.625 36.8516 100.953 38.0547 98.9688 40.4609C97 42.8203 96.0156 45.875 96.0156 49.625ZM132.648 33.5703C132.648 33.1641 132.773 32.8125 133.023 32.5156C133.289 32.2188 133.602 32.0703 133.961 32.0703H137.242C137.602 32.0703 137.906 32.2188 138.156 32.5156C138.406 32.8125 138.531 33.1641 138.531 33.5703V62.7734H151.234C151.641 62.7734 151.945 62.9062 152.148 63.1719C152.367 63.4219 152.477 63.7344 152.477 64.1094V66.6875C152.477 67.0469 152.367 67.3594 152.148 67.625C151.945 67.875 151.641 68 151.234 68H133.938C133.578 68 133.273 67.8516 133.023 67.5547C132.773 67.2578 132.648 66.9062 132.648 66.5V33.5703ZM159.836 59.1406C159.164 57.7344 158.648 56.2422 158.289 54.6641C157.945 53.0703 157.773 51.1953 157.773 49.0391C157.773 46.8672 158.188 44.6641 159.016 42.4297C159.859 40.1953 161.047 38.2656 162.578 36.6406C165.812 33.2031 170 31.4844 175.141 31.4844C180.609 31.4844 184.898 33.2422 188.008 36.7578C190.961 40.0859 192.438 44.4297 192.438 49.7891C192.438 55.1016 190.812 59.5469 187.562 63.125C186.031 64.8125 184.195 66.1484 182.055 67.1328C179.914 68.1016 177.742 68.5859 175.539 68.5859C173.352 68.5859 171.484 68.3594 169.938 67.9062C168.391 67.4375 166.977 66.7891 165.695 65.9609C164.43 65.1172 163.305 64.1172 162.32 62.9609C161.336 61.8047 160.508 60.5312 159.836 59.1406ZM164.125 49.625C164.125 51.4219 164.336 53.125 164.758 54.7344C165.195 56.3438 165.859 57.7812 166.75 59.0469C168.719 61.8125 171.492 63.1953 175.07 63.1953C178.664 63.1953 181.438 61.875 183.391 59.2344C185.188 56.7969 186.086 53.6406 186.086 49.7656C186.086 46.1094 185.172 43.0938 183.344 40.7188C181.328 38.1406 178.578 36.8516 175.094 36.8516C171.734 36.8516 169.062 38.0547 167.078 40.4609C165.109 42.8203 164.125 45.875 164.125 49.625ZM224.664 62.9609L227.078 62.6328C227.516 62.6328 227.82 62.7812 227.992 63.0781C228.18 63.375 228.312 63.6953 228.391 64.0391C228.484 64.3672 228.57 64.6641 228.648 64.9297C228.727 65.1953 228.766 65.4844 228.766 65.7969C228.766 66.1094 228.609 66.4297 228.297 66.7578C228 67.0703 227.617 67.3516 227.148 67.6016C226.148 68.1328 225.102 68.3984 224.008 68.3984C222.93 68.3984 221.953 68.2734 221.078 68.0234C220.203 67.7734 219.375 67.4297 218.594 66.9922C217.375 66.3047 216.125 65.3359 214.844 64.0859C213.578 62.8359 212.57 61.7656 211.82 60.875L207.953 56.0938C207.406 55.4375 206.914 54.9062 206.477 54.5V66.5234C206.477 67.1484 206.266 67.5938 205.844 67.8594C205.688 67.9531 205.508 68 205.305 68H201.953C201.531 68 201.234 67.875 201.062 67.625C200.781 67.2188 200.641 66.8516 200.641 66.5234V34.1328C200.641 33.5859 200.781 33.1094 201.062 32.7031C201.359 32.2812 201.836 32.0703 202.492 32.0703H212.945C222.242 32.0703 226.891 35.7422 226.891 43.0859C226.891 46.4609 225.641 49.2969 223.141 51.5938C220.781 53.7656 218 54.8516 214.797 54.8516C214.234 54.8516 213.695 54.8125 213.18 54.7344L216.062 57.7812C217.719 59.5156 219.008 60.6875 219.93 61.2969C221.586 62.4062 223.164 62.9609 224.664 62.9609ZM206.477 50.0234C208.242 50.4297 209.836 50.6328 211.258 50.6328C212.695 50.6328 213.977 50.5 215.102 50.2344C216.227 49.9688 217.227 49.5469 218.102 48.9688C220.039 47.7188 221.008 45.8672 221.008 43.4141C221.008 41.2109 220.172 39.5781 218.5 38.5156C217.094 37.625 215.188 37.1797 212.781 37.1797H206.477V50.0234ZM244.445 55.9297L231.695 33.9688C231.555 33.7344 231.484 33.4766 231.484 33.1953C231.484 32.9141 231.586 32.6562 231.789 32.4219C231.992 32.1875 232.25 32.0703 232.562 32.0703H236.336C236.977 32.0703 237.422 32.2812 237.672 32.7031C237.734 32.8281 237.805 32.9531 237.883 33.0781L247.234 50.2109C247.297 50.3516 247.352 50.4219 247.398 50.4219C247.461 50.4219 247.93 49.7188 248.805 48.3125C249.68 46.8906 250.828 44.7969 252.25 42.0312C253.672 39.2656 254.977 36.4141 256.164 33.4766C256.352 33.0078 256.57 32.6562 256.82 32.4219C257.07 32.1875 257.445 32.0703 257.945 32.0703H261.578C261.953 32.0703 262.234 32.2031 262.422 32.4688C262.609 32.7188 262.703 33.0078 262.703 33.3359C262.703 33.6484 262.641 33.9453 262.516 34.2266C258.469 42.5859 254.391 49.7031 250.281 55.5781V66.5C250.281 66.9219 250.148 67.2812 249.883 67.5781C249.633 67.8594 249.328 68 248.969 68H245.734C245.375 68 245.07 67.8516 244.82 67.5547C244.57 67.2578 244.445 66.9062 244.445 66.5V55.9297ZM273.859 37.1797H265.398C264.992 37.1797 264.641 37.0547 264.344 36.8047C264.062 36.5391 263.922 36.2188 263.922 35.8438V33.3828C263.922 33.0234 264.062 32.7188 264.344 32.4688C264.641 32.2031 264.992 32.0703 265.398 32.0703H288.555C288.961 32.0703 289.266 32.2031 289.469 32.4688C289.688 32.7188 289.797 33.0312 289.797 33.4062V35.8672C289.797 36.2266 289.688 36.5391 289.469 36.8047C289.25 37.0547 288.938 37.1797 288.531 37.1797H279.766V66.5C279.766 66.9062 279.633 67.2578 279.367 67.5547C279.117 67.8516 278.812 68 278.453 68H275.148C274.789 68 274.484 67.8516 274.234 67.5547C273.984 67.2578 273.859 66.9062 273.859 66.5V37.1797Z" fill="black"/>
</g>
<defs>
<filter id="filter0_d_701_434" x="50.0625" y="26.4844" width="249.734" height="58.2734" filterUnits="userSpaceOnUse" color-interpolation-filters="sRGB">
<feFlood flood-opacity="0" result="BackgroundImageFix"/>
<feColorMatrix in="SourceAlpha" type="matrix" values="0 0 0 0 0 0 0 0 0 0 0 0 0 0 0 0 0 0 127 0" result="hardAlpha"/>
<feOffset dy="5"/>
<feGaussianBlur stdDeviation="5"/>
<feComposite in2="hardAlpha" operator="out"/>
<feColorMatrix type="matrix" values="0 0 0 0 0 0 0 0 0 0 0 0 0 0 0 0 0 0 0.1 0"/>
<feBlend mode="normal" in2="BackgroundImageFix" result="effect1_dropShadow_701_434"/>
<feBlend mode="normal" in="SourceGraphic" in2="effect1_dropShadow_701_434" result="shape"/>
</filter>
</defs>
</svg>
