<svg width="301" height="86" viewBox="0 0 301 86" fill="none" xmlns="http://www.w3.org/2000/svg">
<path d="M45.1022 19.8156C46.4093 12.6958 54.9131 3.00006 54.9131 3.00006L5 15.4094C5 15.4094 16.8477 20.0777 21.1439 25.7721C27.6932 34.4529 22.4328 53.1261 22.4328 53.1261C22.4328 53.1261 17.5163 65.5004 22.1641 70.804C23.8855 72.7684 26.4262 72.6273 27.8187 74.7892C28.9416 76.5327 29.081 79.8665 29.081 79.8665L58.2303 72.6195C58.2303 72.6195 59.6574 68.8432 60.961 66.5494C62.4949 63.8504 64.752 62.8452 65.6882 59.983C67.95 53.0688 60.2414 46.6014 55.5751 44.8863C50.9088 43.1711 43.145 30.4765 45.1022 19.8156Z" stroke="#0F0FFF" stroke-width="3"/>
<g filter="url(#filter0_d_701_434)">
<path d="M85.7422 64.0312L86.6797 63.9844C87.3672 63.9844 87.7969 64.2891 87.9688 64.8984C88.0625 65.2578 88.1562 65.6016 88.25 65.9297C88.3438 66.2422 88.3906 66.6016 88.3906 67.0078C88.3906 67.3984 88.2734 67.7344 88.0391 68.0156C87.8047 68.2969 87.5 68.5391 87.125 68.7422C84.6406 70.0859 81.9375 69.5312 79.0156 67.0781C76.625 65.0938 74.0391 61.8047 71.2578 57.2109L67.9766 51.5859C68.3672 50.8203 68.8125 50 69.3125 49.125C71.4375 45.5781 73.1406 42.9531 74.4219 41.25C77.0312 37.7812 79.1797 35.3203 80.8672 33.8672C81.5859 33.2422 82.1484 32.9297 82.5547 32.9297C83.2891 32.9297 83.9609 33.1719 84.5703 33.6562L85.3438 34.2422C86.4531 35.0703 86.7344 35.8359 86.1875 36.5391C85.9062 36.9141 85.5547 37.2734 85.1328 37.6172C84.7109 37.9609 84.3125 38.3203 83.9375 38.6953C82.5 40.1641 81.3906 41.3359 80.6094 42.2109C78.7344 44.3984 77.4297 45.9531 76.6953 46.875L74.8438 49.3125C74.3281 50.0312 73.8984 50.6719 73.5547 51.2344L75.7344 54.4688L77.2578 56.625C80.5078 61.125 83.0312 63.5625 84.8281 63.9375C85.125 64 85.4297 64.0312 85.7422 64.0312ZM61.0625 34.5703C61.0625 34.1641 61.1875 33.8125 61.4375 33.5156C61.7031 33.2188 62.0156 33.0703 62.375 33.0703H65.6562C66.0156 33.0703 66.3203 33.2188 66.5703 33.5156C66.8203 33.8125 66.9453 34.1641 66.9453 34.5703V67.5C66.9453 67.9062 66.8125 68.2578 66.5469 68.5547C66.2969 68.8516 65.9922 69 65.6328 69H62.3516C61.9922 69 61.6875 68.8516 61.4375 68.5547C61.1875 68.2578 61.0625 67.9062 61.0625 67.5V34.5703ZM92.7266 60.1406C92.0547 58.7344 91.5391 57.2422 91.1797 55.6641C90.8359 54.0703 90.6641 52.1953 90.6641 50.0391C90.6641 47.8672 91.0781 45.6641 91.9062 43.4297C92.75 41.1953 93.9375 39.2656 95.4688 37.6406C98.7031 34.2031 102.891 32.4844 108.031 32.4844C113.5 32.4844 117.789 34.2422 120.898 37.7578C123.852 41.0859 125.328 45.4297 125.328 50.7891C125.328 56.1016 123.703 60.5469 120.453 64.125C118.922 65.8125 117.086 67.1484 114.945 68.1328C112.805 69.1016 110.633 69.5859 108.43 69.5859C106.242 69.5859 104.375 69.3594 102.828 68.9062C101.281 68.4375 99.8672 67.7891 98.5859 66.9609C97.3203 66.1172 96.1953 65.1172 95.2109 63.9609C94.2266 62.8047 93.3984 61.5312 92.7266 60.1406ZM97.0156 50.625C97.0156 52.4219 97.2266 54.125 97.6484 55.7344C98.0859 57.3438 98.75 58.7812 99.6406 60.0469C101.609 62.8125 104.383 64.1953 107.961 64.1953C111.555 64.1953 114.328 62.875 116.281 60.2344C118.078 57.7969 118.977 54.6406 118.977 50.7656C118.977 47.1094 118.062 44.0938 116.234 41.7188C114.219 39.1406 111.469 37.8516 107.984 37.8516C104.625 37.8516 101.953 39.0547 99.9688 41.4609C98 43.8203 97.0156 46.875 97.0156 50.625ZM133.648 34.5703C133.648 34.1641 133.773 33.8125 134.023 33.5156C134.289 33.2188 134.602 33.0703 134.961 33.0703H138.242C138.602 33.0703 138.906 33.2188 139.156 33.5156C139.406 33.8125 139.531 34.1641 139.531 34.5703V63.7734H152.234C152.641 63.7734 152.945 63.9062 153.148 64.1719C153.367 64.4219 153.477 64.7344 153.477 65.1094V67.6875C153.477 68.0469 153.367 68.3594 153.148 68.625C152.945 68.875 152.641 69 152.234 69H134.938C134.578 69 134.273 68.8516 134.023 68.5547C133.773 68.2578 133.648 67.9062 133.648 67.5V34.5703ZM160.836 60.1406C160.164 58.7344 159.648 57.2422 159.289 55.6641C158.945 54.0703 158.773 52.1953 158.773 50.0391C158.773 47.8672 159.188 45.6641 160.016 43.4297C160.859 41.1953 162.047 39.2656 163.578 37.6406C166.812 34.2031 171 32.4844 176.141 32.4844C181.609 32.4844 185.898 34.2422 189.008 37.7578C191.961 41.0859 193.438 45.4297 193.438 50.7891C193.438 56.1016 191.812 60.5469 188.562 64.125C187.031 65.8125 185.195 67.1484 183.055 68.1328C180.914 69.1016 178.742 69.5859 176.539 69.5859C174.352 69.5859 172.484 69.3594 170.938 68.9062C169.391 68.4375 167.977 67.7891 166.695 66.9609C165.43 66.1172 164.305 65.1172 163.32 63.9609C162.336 62.8047 161.508 61.5312 160.836 60.1406ZM165.125 50.625C165.125 52.4219 165.336 54.125 165.758 55.7344C166.195 57.3438 166.859 58.7812 167.75 60.0469C169.719 62.8125 172.492 64.1953 176.07 64.1953C179.664 64.1953 182.438 62.875 184.391 60.2344C186.188 57.7969 187.086 54.6406 187.086 50.7656C187.086 47.1094 186.172 44.0938 184.344 41.7188C182.328 39.1406 179.578 37.8516 176.094 37.8516C172.734 37.8516 170.062 39.0547 168.078 41.4609C166.109 43.8203 165.125 46.875 165.125 50.625ZM225.664 63.9609L228.078 63.6328C228.516 63.6328 228.82 63.7812 228.992 64.0781C229.18 64.375 229.312 64.6953 229.391 65.0391C229.484 65.3672 229.57 65.6641 229.648 65.9297C229.727 66.1953 229.766 66.4844 229.766 66.7969C229.766 67.1094 229.609 67.4297 229.297 67.7578C229 68.0703 228.617 68.3516 228.148 68.6016C227.148 69.1328 226.102 69.3984 225.008 69.3984C223.93 69.3984 222.953 69.2734 222.078 69.0234C221.203 68.7734 220.375 68.4297 219.594 67.9922C218.375 67.3047 217.125 66.3359 215.844 65.0859C214.578 63.8359 213.57 62.7656 212.82 61.875L208.953 57.0938C208.406 56.4375 207.914 55.9062 207.477 55.5V67.5234C207.477 68.1484 207.266 68.5938 206.844 68.8594C206.688 68.9531 206.508 69 206.305 69H202.953C202.531 69 202.234 68.875 202.062 68.625C201.781 68.2188 201.641 67.8516 201.641 67.5234V35.1328C201.641 34.5859 201.781 34.1094 202.062 33.7031C202.359 33.2812 202.836 33.0703 203.492 33.0703H213.945C223.242 33.0703 227.891 36.7422 227.891 44.0859C227.891 47.4609 226.641 50.2969 224.141 52.5938C221.781 54.7656 219 55.8516 215.797 55.8516C215.234 55.8516 214.695 55.8125 214.18 55.7344L217.062 58.7812C218.719 60.5156 220.008 61.6875 220.93 62.2969C222.586 63.4062 224.164 63.9609 225.664 63.9609ZM207.477 51.0234C209.242 51.4297 210.836 51.6328 212.258 51.6328C213.695 51.6328 214.977 51.5 216.102 51.2344C217.227 50.9688 218.227 50.5469 219.102 49.9688C221.039 48.7188 222.008 46.8672 222.008 44.4141C222.008 42.2109 221.172 40.5781 219.5 39.5156C218.094 38.625 216.188 38.1797 213.781 38.1797H207.477V51.0234ZM245.445 56.9297L232.695 34.9688C232.555 34.7344 232.484 34.4766 232.484 34.1953C232.484 33.9141 232.586 33.6562 232.789 33.4219C232.992 33.1875 233.25 33.0703 233.562 33.0703H237.336C237.977 33.0703 238.422 33.2812 238.672 33.7031C238.734 33.8281 238.805 33.9531 238.883 34.0781L248.234 51.2109C248.297 51.3516 248.352 51.4219 248.398 51.4219C248.461 51.4219 248.93 50.7188 249.805 49.3125C250.68 47.8906 251.828 45.7969 253.25 43.0312C254.672 40.2656 255.977 37.4141 257.164 34.4766C257.352 34.0078 257.57 33.6562 257.82 33.4219C258.07 33.1875 258.445 33.0703 258.945 33.0703H262.578C262.953 33.0703 263.234 33.2031 263.422 33.4688C263.609 33.7188 263.703 34.0078 263.703 34.3359C263.703 34.6484 263.641 34.9453 263.516 35.2266C259.469 43.5859 255.391 50.7031 251.281 56.5781V67.5C251.281 67.9219 251.148 68.2812 250.883 68.5781C250.633 68.8594 250.328 69 249.969 69H246.734C246.375 69 246.07 68.8516 245.82 68.5547C245.57 68.2578 245.445 67.9062 245.445 67.5V56.9297ZM274.859 38.1797H266.398C265.992 38.1797 265.641 38.0547 265.344 37.8047C265.062 37.5391 264.922 37.2188 264.922 36.8438V34.3828C264.922 34.0234 265.062 33.7188 265.344 33.4688C265.641 33.2031 265.992 33.0703 266.398 33.0703H289.555C289.961 33.0703 290.266 33.2031 290.469 33.4688C290.688 33.7188 290.797 34.0312 290.797 34.4062V36.8672C290.797 37.2266 290.688 37.5391 290.469 37.8047C290.25 38.0547 289.938 38.1797 289.531 38.1797H280.766V67.5C280.766 67.9062 280.633 68.2578 280.367 68.5547C280.117 68.8516 279.812 69 279.453 69H276.148C275.789 69 275.484 68.8516 275.234 68.5547C274.984 68.2578 274.859 67.9062 274.859 67.5V38.1797Z" fill="#191919"/>
</g>
<defs>
<filter id="filter0_d_701_434" x="51.0625" y="27.4844" width="249.734" height="58.2734" filterUnits="userSpaceOnUse" color-interpolation-filters="sRGB">
<feFlood flood-opacity="0" result="BackgroundImageFix"/>
<feColorMatrix in="SourceAlpha" type="matrix" values="0 0 0 0 0 0 0 0 0 0 0 0 0 0 0 0 0 0 127 0" result="hardAlpha"/>
<feOffset dy="5"/>
<feGaussianBlur stdDeviation="5"/>
<feComposite in2="hardAlpha" operator="out"/>
<feColorMatrix type="matrix" values="0 0 0 0 0 0 0 0 0 0 0 0 0 0 0 0 0 0 0.1 0"/>
<feBlend mode="normal" in2="BackgroundImageFix" result="effect1_dropShadow_701_434"/>
<feBlend mode="normal" in="SourceGraphic" in2="effect1_dropShadow_701_434" result="shape"/>
</filter>
</defs>
</svg>
