<svg width="8" height="14" viewBox="0 0 8 14" fill="none" xmlns="http://www.w3.org/2000/svg">
<path d="M6.13605 7.0001L0.474715 1.1821C0.428104 1.13522 0.391255 1.07955 0.366299 1.01833C0.341343 0.957109 0.328775 0.891546 0.329325 0.825436C0.329874 0.759326 0.343529 0.693981 0.369498 0.633183C0.395468 0.572385 0.433237 0.517341 0.48062 0.471236C0.528004 0.425131 0.58406 0.388881 0.645545 0.364583C0.70703 0.340285 0.772725 0.328422 0.838826 0.32968C0.904926 0.330939 0.97012 0.345294 1.03064 0.371914C1.09115 0.398535 1.14579 0.436893 1.19138 0.484768L7.19138 6.65143C7.2822 6.74478 7.33301 6.86987 7.33301 7.0001C7.33301 7.13033 7.2822 7.25542 7.19138 7.34877L1.19138 13.5154C1.14579 13.5633 1.09115 13.6017 1.03064 13.6283C0.97012 13.6549 0.904926 13.6693 0.838826 13.6705C0.772725 13.6718 0.70703 13.6599 0.645545 13.6356C0.58406 13.6113 0.528004 13.5751 0.48062 13.529C0.433237 13.4829 0.395468 13.4278 0.369498 13.367C0.343529 13.3062 0.329874 13.2409 0.329325 13.1748C0.328775 13.1087 0.341343 13.0431 0.366299 12.9819C0.391255 12.9207 0.428104 12.865 0.474715 12.8181L6.13605 7.0001Z" fill="black"/>
</svg>
