<svg width="22" height="22" viewBox="0 0 22 22" fill="#0B0599" xmlns="http://www.w3.org/2000/svg">
<path d="M20.3563 21.1924L12.5288 13.3649C11.9038 13.8974 11.185 14.3095 10.3725 14.6012C9.56001 14.8928 8.74334 15.0387 7.92251 15.0387C5.92084 15.0387 4.22668 14.3458 2.84001 12.9599C1.45334 11.5733 0.76001 9.87952 0.76001 7.87868C0.76001 5.87785 1.45251 4.18326 2.83751 2.79493C4.22334 1.40576 5.91668 0.711182 7.91751 0.711182C9.91918 0.711182 11.6142 1.40452 13.0025 2.79118C14.3908 4.17785 15.085 5.87243 15.085 7.87493C15.085 8.74327 14.9313 9.58368 14.6238 10.3962C14.3154 11.2087 13.9113 11.9037 13.4113 12.4812L21.2388 20.3074L20.3563 21.1924ZM7.92251 13.7874C9.58084 13.7874 10.9813 13.2166 12.1238 12.0749C13.2654 10.9333 13.8363 9.53285 13.8363 7.87368C13.8363 6.21535 13.2654 4.81535 12.1238 3.67368C10.9821 2.53201 9.58209 1.96118 7.92376 1.96118C6.26543 1.96118 4.86501 2.53201 3.72251 3.67368C2.58084 4.81535 2.01001 6.21535 2.01001 7.87368C2.01001 9.53201 2.58084 10.932 3.72251 12.0737C4.86418 13.2153 6.26418 13.7874 7.92251 13.7874Z" />
</svg>
