<svg width="67" height="81" viewBox="0 0 67 81" fill="none" xmlns="http://www.w3.org/2000/svg">
<path d="M44.1029 18.8155C45.41 11.6957 53.9138 2 53.9138 2L4.00073 14.4094C4.00073 14.4094 15.8485 19.0776 20.1446 24.772C26.6939 33.4528 21.4336 52.126 21.4336 52.126C21.4336 52.126 16.5171 64.5003 21.1648 69.8039C22.8863 71.7683 25.4269 71.6272 26.8194 73.7892C27.9424 75.5326 28.0818 78.8665 28.0818 78.8665L57.231 71.6194C57.231 71.6194 58.6582 67.8431 59.9617 65.5494C61.4956 62.8503 63.7527 61.8451 64.689 58.9829C66.9507 52.0688 59.2421 45.6014 54.5758 43.8862C49.9096 42.1711 42.1458 29.4765 44.1029 18.8155Z" stroke="#0B0599" stroke-width="2"/>
</svg>
