<svg width="68" height="82" viewBox="0 0 68 82" fill="none" xmlns="http://www.w3.org/2000/svg">
<path d="M45.3985 19.8155C46.7056 12.6957 55.2094 3 55.2094 3L5.29633 15.4094C5.29633 15.4094 17.1441 20.0776 21.4402 25.772C27.9895 34.4528 22.7292 53.126 22.7292 53.126C22.7292 53.126 17.8127 65.5003 22.4604 70.8039C24.1819 72.7683 26.7225 72.6272 28.115 74.7892C29.238 76.5326 29.3774 79.8665 29.3774 79.8665L58.5266 72.6194C58.5266 72.6194 59.9538 68.8431 61.2573 66.5494C62.7912 63.8503 65.0483 62.8451 65.9846 59.9829C68.2463 53.0687 60.5377 46.6014 55.8714 44.8862C51.2052 43.1711 43.4413 30.4765 45.3985 19.8155Z" stroke="#0F0FFF" stroke-width="3"/>
</svg>
