<svg width="27" height="19" viewBox="0 0 27 19" fill="none" xmlns="http://www.w3.org/2000/svg">
<path d="M2.8125 0C1.27031 0 0 1.27031 0 2.8125V15.9375C0 17.4797 1.27031 18.75 2.8125 18.75H23.4375C24.9797 18.75 26.25 17.4797 26.25 15.9375V2.8125C26.25 1.27031 24.9797 0 23.4375 0H2.8125ZM2.8125 1.875H23.4375C23.9672 1.875 24.375 2.28281 24.375 2.8125V15.9375C24.375 16.4672 23.9672 16.875 23.4375 16.875H2.8125C2.28281 16.875 1.875 16.4672 1.875 15.9375V2.8125C1.875 2.28281 2.28281 1.875 2.8125 1.875ZM16.3181 5.97656C14.5125 5.97656 13.5647 6.86719 13.5647 7.99781C13.5647 10.0444 15.9647 9.76031 15.9647 10.8103C15.9647 10.9913 15.8147 11.3981 14.8209 11.3981C13.8272 11.3981 13.1803 11.0466 13.1803 11.0466L12.8897 12.3966C12.8897 12.3966 13.5037 12.7762 14.7366 12.7762C15.9647 12.7762 17.6934 11.8313 17.6934 10.4606C17.6934 8.81438 15.2906 8.70563 15.2906 7.97156C15.2906 7.59656 15.6094 7.29656 16.4625 7.29656C17.0194 7.29656 17.6344 7.73719 17.6344 7.73719L17.9288 6.30281C17.9288 6.30281 17.1131 5.97938 16.3162 5.97938L16.3181 5.97656ZM8.61375 6.09375L7.03125 10.7231C7.03125 10.7231 6.9525 10.3219 6.91406 10.0781C6.01875 8.07187 4.57031 7.32375 4.57031 7.32375L5.94844 12.5681H7.82344L10.4578 6.09375H8.61562H8.61375ZM11.1328 6.09375L10.1072 12.5681H11.8378L12.8625 6.09375H11.1328ZM20.4497 6.09375L17.6372 12.5681H19.3359L19.6875 11.6606H21.8559L22.0312 12.5681H23.5837L22.2656 6.09375H20.4497ZM2.66531 6.12187C2.66531 6.12187 6.0375 7.15781 6.82594 9.6975L6.24188 6.76781C6.24188 6.76781 5.98406 6.12094 5.30438 6.12094H2.66625L2.66531 6.12187ZM21.0938 7.96875L21.5906 10.4006H20.1844L21.0938 7.96875Z" fill="black"/>
</svg>
